HIERARCHY
ROOT Hips
{
	OFFSET 0.000000 71.427986 0.000000
	CHANNELS 6 Xposition Yposition Zposition Xrotation Yrotation Zrotation
	JOINT Pelvis
	{
		OFFSET 0.000000 0.000000 0.000000
		CHANNELS 3 Xrotation Yrotation Zrotation
		JOINT LeftUpLeg
		{
			OFFSET 6.797100 -2.508499 -1.318700
			CHANNELS 3 Xrotation Yrotation Zrotation
			JOINT LeftLeg
			{
				OFFSET 0.069008 -29.241863 0.690200
				CHANNELS 3 Xrotation Yrotation Zrotation
				JOINT LeftFoot
				{
					OFFSET -0.069008 -29.568123 -0.266800
					CHANNELS 3 Xrotation Yrotation Zrotation
					JOINT LeftToeBase
					{
						OFFSET 3.145500 -8.631000 16.059900
						CHANNELS 3 Xrotation Yrotation Zrotation
						End Site
						{
							OFFSET 0.000000 18.501587 0.000000
						}
					}
				}
			}
			JOINT Left_ShortSleeve
			{
				OFFSET 0.265923 -10.480953 1.153800
				CHANNELS 3 Xrotation Yrotation Zrotation
				End Site
				{
					OFFSET 1.725763 19.823879 0.000000
				}
			}
		}
		JOINT RightUpLeg
		{
			OFFSET -6.797100 -2.508499 -1.318700
			CHANNELS 3 Xrotation Yrotation Zrotation
			JOINT RightLeg
			{
				OFFSET -0.082453 -29.241932 0.688000
				CHANNELS 3 Xrotation Yrotation Zrotation
				JOINT RightFoot
				{
					OFFSET 0.082453 -29.568058 -0.264600
					CHANNELS 3 Xrotation Yrotation Zrotation
					JOINT RightToeBase
					{
						OFFSET -3.115300 -8.682800 16.113400
						CHANNELS 3 Xrotation Yrotation Zrotation
						End Site
						{
							OFFSET 0.000000 18.567114 0.000000
						}
					}
				}
			}
			JOINT Right_ShortSleeve
			{
				OFFSET -0.265923 -10.480953 1.153800
				CHANNELS 3 Xrotation Yrotation Zrotation
				End Site
				{
					OFFSET -1.725766 19.823910 0.000000
				}
			}
		}
	}
	JOINT Spine
	{
		OFFSET 0.000000 13.368103 0.470500
		CHANNELS 3 Xrotation Yrotation Zrotation
		JOINT Spine1
		{
			OFFSET 0.147000 13.837402 0.538800
			CHANNELS 3 Xrotation Yrotation Zrotation
			JOINT Spine2
			{
				OFFSET 0.168000 16.242897 -1.435500
				CHANNELS 3 Xrotation Yrotation Zrotation
				JOINT Neck
				{
					OFFSET 0.217200 18.631500 -1.679100
					CHANNELS 3 Xrotation Yrotation Zrotation
					JOINT Head
					{
						OFFSET 0.000000 6.599396 1.385900
						CHANNELS 3 Xrotation Yrotation Zrotation
						JOINT Hat
						{
							OFFSET -0.532200 27.220596 -10.096100
							CHANNELS 3 Xrotation Yrotation Zrotation
							End Site
							{
								OFFSET 0.000000 22.029861 0.000000
							}
						}
						JOINT HairD
						{
							OFFSET -10.777400 17.437393 -1.325900
							CHANNELS 3 Xrotation Yrotation Zrotation
							JOINT HairD1
							{
								OFFSET -3.290299 -11.051193 1.062200
								CHANNELS 3 Xrotation Yrotation Zrotation
								End Site
								{
									OFFSET 0.000000 11.579437 0.000000
								}
							}
						}
						JOINT HairB
						{
							OFFSET -10.777400 17.437393 1.467900
							CHANNELS 3 Xrotation Yrotation Zrotation
							JOINT HairB1
							{
								OFFSET -1.561200 -12.956299 3.590200
								CHANNELS 3 Xrotation Yrotation Zrotation
								End Site
								{
									OFFSET 0.000000 13.534866 0.000000
								}
							}
						}
						JOINT HairA
						{
							OFFSET 9.713100 17.437393 1.467900
							CHANNELS 3 Xrotation Yrotation Zrotation
							JOINT HairA1
							{
								OFFSET 1.561200 -12.956299 3.590200
								CHANNELS 3 Xrotation Yrotation Zrotation
								End Site
								{
									OFFSET 0.000000 13.534866 0.000000
								}
							}
						}
						JOINT HairC
						{
							OFFSET 9.713100 17.437393 -1.325900
							CHANNELS 3 Xrotation Yrotation Zrotation
							JOINT HairC1
							{
								OFFSET 3.290300 -11.051193 1.062200
								CHANNELS 3 Xrotation Yrotation Zrotation
								End Site
								{
									OFFSET 0.000000 11.579437 0.000000
								}
							}
						}
					}
				}
				JOINT LeftShoulder
				{
					OFFSET 5.101800 15.108002 -2.763700
					CHANNELS 3 Xrotation Yrotation Zrotation
					JOINT LeftArm
					{
						OFFSET 9.825497 2.506317 -1.597400
						CHANNELS 3 Xrotation Yrotation Zrotation
						JOINT LeftForeArm
						{
							OFFSET 21.966244 0.000000 0.000000
							CHANNELS 3 Xrotation Yrotation Zrotation
							JOINT LeftHand
							{
								OFFSET 33.879036 0.000000 0.000000
								CHANNELS 3 Xrotation Yrotation Zrotation
								JOINT LeftHandThumb1
								{
									OFFSET 6.715286 -2.359680 3.363841
									CHANNELS 3 Xrotation Yrotation Zrotation
									JOINT LeftHandThumb2
									{
										OFFSET 2.507072 -1.447464 1.447461
										CHANNELS 3 Xrotation Yrotation Zrotation
										JOINT LeftHandThumb3
										{
											OFFSET 2.898338 -1.673355 1.673357
											CHANNELS 3 Xrotation Yrotation Zrotation
											End Site
											{
												OFFSET -0.295959 3.727692 -0.131651
											}
										}
									}
								}
								JOINT LeftHandIndex1
								{
									OFFSET 14.190811 -0.254547 3.840278
									CHANNELS 3 Xrotation Yrotation Zrotation
									JOINT LeftHandIndex2
									{
										OFFSET 3.551727 0.000000 -0.000000
										CHANNELS 3 Xrotation Yrotation Zrotation
										JOINT LeftHandIndex3
										{
											OFFSET 2.894196 0.000000 0.000000
											CHANNELS 3 Xrotation Yrotation Zrotation
											End Site
											{
												OFFSET -1.000603 2.690872 0.366626
											}
										}
									}
								}
								JOINT LeftHandMiddle1
								{
									OFFSET 13.776489 0.000000 0.000000
									CHANNELS 3 Xrotation Yrotation Zrotation
									JOINT LeftHandMiddle2
									{
										OFFSET 3.438232 0.000000 0.000000
										CHANNELS 3 Xrotation Yrotation Zrotation
										JOINT LeftHandMiddle3
										{
											OFFSET 3.691551 0.000000 0.000000
											CHANNELS 3 Xrotation Yrotation Zrotation
											End Site
											{
												OFFSET -1.082298 3.499527 0.457670
											}
										}
									}
								}
								JOINT LeftHandRing1
								{
									OFFSET 13.966164 -0.268127 -3.067488
									CHANNELS 3 Xrotation Yrotation Zrotation
									JOINT LeftHandRing2
									{
										OFFSET 3.162567 0.000000 0.000000
										CHANNELS 3 Xrotation Yrotation Zrotation
										JOINT LeftHandRing3
										{
											OFFSET 3.324348 0.000000 0.000000
											CHANNELS 3 Xrotation Yrotation Zrotation
											End Site
											{
												OFFSET -0.861900 3.184998 0.405154
											}
										}
									}
								}
								JOINT LeftHandPinky1
								{
									OFFSET 13.131393 -0.168503 -5.746925
									CHANNELS 3 Xrotation Yrotation Zrotation
									JOINT LeftHandPinky2
									{
										OFFSET 2.849182 0.000000 0.000000
										CHANNELS 3 Xrotation Yrotation Zrotation
										JOINT LeftHandPinky3
										{
											OFFSET 2.805038 0.000000 0.000000
											CHANNELS 3 Xrotation Yrotation Zrotation
											End Site
											{
												OFFSET -0.882500 2.642609 0.325652
											}
										}
									}
								}
							}
							JOINT Left_Sleeve
							{
								OFFSET 6.592125 -0.646545 0.805568
								CHANNELS 3 Xrotation Yrotation Zrotation
								End Site
								{
									OFFSET -0.000179 20.275787 -0.000000
								}
							}
						}
					}
				}
				JOINT RightShoulder
				{
					OFFSET -5.731700 15.108002 -2.763700
					CHANNELS 3 Xrotation Yrotation Zrotation
					JOINT RightArm
					{
						OFFSET -9.825497 2.506317 -1.597400
						CHANNELS 3 Xrotation Yrotation Zrotation
						JOINT RightForeArm
						{
							OFFSET -21.966242 0.000000 0.000000
							CHANNELS 3 Xrotation Yrotation Zrotation
							JOINT RightHand
							{
								OFFSET -33.879032 0.000000 0.000000
								CHANNELS 3 Xrotation Yrotation Zrotation
								JOINT RightHandThumb1
								{
									OFFSET -6.715286 -2.359680 3.363841
									CHANNELS 3 Xrotation Yrotation Zrotation
									JOINT RightHandThumb2
									{
										OFFSET -2.507072 -1.447464 1.447461
										CHANNELS 3 Xrotation Yrotation Zrotation
										JOINT RightHandThumb3
										{
											OFFSET -2.898338 -1.673355 1.673357
											CHANNELS 3 Xrotation Yrotation Zrotation
											End Site
											{
												OFFSET 0.295959 3.727692 -0.131651
											}
										}
									}
								}
								JOINT RightHandIndex1
								{
									OFFSET -14.190811 -0.254547 3.840278
									CHANNELS 3 Xrotation Yrotation Zrotation
									JOINT RightHandIndex2
									{
										OFFSET -3.551727 0.000000 -0.000000
										CHANNELS 3 Xrotation Yrotation Zrotation
										JOINT RightHandIndex3
										{
											OFFSET -2.894196 0.000000 0.000000
											CHANNELS 3 Xrotation Yrotation Zrotation
											End Site
											{
												OFFSET 1.000603 2.690872 0.366626
											}
										}
									}
								}
								JOINT RightHandMiddle1
								{
									OFFSET -13.776489 0.000000 0.000000
									CHANNELS 3 Xrotation Yrotation Zrotation
									JOINT RightHandMiddle2
									{
										OFFSET -3.438232 0.000000 0.000000
										CHANNELS 3 Xrotation Yrotation Zrotation
										JOINT RightHandMiddle3
										{
											OFFSET -3.691551 0.000000 0.000000
											CHANNELS 3 Xrotation Yrotation Zrotation
											End Site
											{
												OFFSET 1.082298 3.499527 0.457670
											}
										}
									}
								}
								JOINT RightHandRing1
								{
									OFFSET -13.966164 -0.268127 -3.067488
									CHANNELS 3 Xrotation Yrotation Zrotation
									JOINT RightHandRing2
									{
										OFFSET -3.162567 0.000000 0.000000
										CHANNELS 3 Xrotation Yrotation Zrotation
										JOINT RightHandRing3
										{
											OFFSET -3.324348 0.000000 0.000000
											CHANNELS 3 Xrotation Yrotation Zrotation
											End Site
											{
												OFFSET 0.861900 3.184998 0.405154
											}
										}
									}
								}
								JOINT RightHandPinky1
								{
									OFFSET -13.131393 -0.168503 -5.746925
									CHANNELS 3 Xrotation Yrotation Zrotation
									JOINT RightHandPinky2
									{
										OFFSET -2.849182 0.000000 0.000000
										CHANNELS 3 Xrotation Yrotation Zrotation
										JOINT RightHandPinky3
										{
											OFFSET -2.805038 0.000000 0.000000
											CHANNELS 3 Xrotation Yrotation Zrotation
											End Site
											{
												OFFSET 0.882500 2.642609 0.325652
											}
										}
									}
								}
							}
							JOINT Right_Sleeve
							{
								OFFSET -6.592125 -0.646545 0.805568
								CHANNELS 3 Xrotation Yrotation Zrotation
								End Site
								{
									OFFSET 0.000179 20.275787 -0.000000
								}
							}
						}
					}
				}
				JOINT Bind_Right_JacketString
				{
					OFFSET -3.534800 11.969597 7.200700
					CHANNELS 3 Xrotation Yrotation Zrotation
					JOINT Bind_Right_JacketString1
					{
						OFFSET -0.319900 -6.102600 2.794100
						CHANNELS 3 Xrotation Yrotation Zrotation
						End Site
						{
							OFFSET 0.000000 6.719452 0.000000
						}
					}
				}
				JOINT Bind_Left_JacketString
				{
					OFFSET 2.904800 11.969597 7.200700
					CHANNELS 3 Xrotation Yrotation Zrotation
					JOINT Bind_Left_JacketString1
					{
						OFFSET 0.364800 -5.904503 3.186800
						CHANNELS 3 Xrotation Yrotation Zrotation
						End Site
						{
							OFFSET 0.000000 6.719513 0.000000
						}
					}
				}
				JOINT HairE
				{
					OFFSET 5.915200 17.612701 -11.592200
					CHANNELS 3 Xrotation Yrotation Zrotation
					JOINT HairE1
					{
						OFFSET 0.289200 -7.171898 -1.284500
						CHANNELS 3 Xrotation Yrotation Zrotation
						End Site
						{
							OFFSET 0.000000 7.291756 0.000000
						}
					}
				}
				JOINT HairF
				{
					OFFSET -0.864800 17.612701 -11.592200
					CHANNELS 3 Xrotation Yrotation Zrotation
					JOINT HairF1
					{
						OFFSET 0.000000 -14.087097 -2.127501
						CHANNELS 3 Xrotation Yrotation Zrotation
						End Site
						{
							OFFSET 0.000000 14.246841 0.000000
						}
					}
				}
				JOINT HairG
				{
					OFFSET -8.087700 17.612701 -11.592200
					CHANNELS 3 Xrotation Yrotation Zrotation
					JOINT HairG1
					{
						OFFSET -0.293600 -6.081398 -0.910100
						CHANNELS 3 Xrotation Yrotation Zrotation
						End Site
						{
							OFFSET 0.000000 6.156120 0.000000
						}
					}
				}
			}
		}
	}
	JOINT Pouch
	{
		OFFSET 0.000000 4.394501 10.847300
		CHANNELS 3 Xrotation Yrotation Zrotation
		End Site
		{
			OFFSET 0.000000 21.880577 0.000000
		}
	}
	JOINT Bag
	{
		OFFSET -13.229000 4.813004 -0.593300
		CHANNELS 3 Xrotation Yrotation Zrotation
		End Site
		{
			OFFSET 0.000000 21.880577 0.000000
		}
	}
	JOINT OccupyGuyFacialAnim_Joint
	{
		OFFSET 1.000000 -70.206398 -1.655000
		CHANNELS 3 Xrotation Yrotation Zrotation
		End Site
		{
			OFFSET 0.000000 21.880577 0.000000
		}
	}
}
MOTION
Frames: 4
Frame Time: 0.016667
-0.989483 66.542542 0.929186 -6.079187 -42.950808 -4.012112 0.000000 -0.000000 -0.000000 -24.712318 6.251117 13.968876 35.029301 -14.597451 -0.214952 -7.797052 0.938144 -7.429447 -0.000000 0.000002 -0.000000 -0.000002 -0.000003 -0.000001 -2.869588 -14.307033 -14.528159 34.185384 -8.755406 -0.403653 -23.633004 -4.505445 16.720926 0.000000 -0.000002 0.000000 -0.000000 -0.000001 -0.000000 5.832768 4.561555 -1.234869 11.835726 9.038087 -3.084130 11.835732 9.038082 -3.084131 -4.303054 -1.272933 0.206305 -6.271935 20.437789 -0.377163 0.000001 -0.000000 0.000000 0.000001 -0.000000 0.000000 0.000001 -0.000000 0.000000 0.000001 -0.000000 0.000000 0.000001 -0.000000 0.000000 0.000001 -0.000000 0.000000 0.000001 -0.000000 0.000000 0.000001 -0.000000 0.000000 0.000001 -0.000000 0.000000 1.387436 -0.696990 -7.876277 -14.260095 2.393802 -63.277120 9.865054 -47.524890 5.927943 16.172816 0.916343 18.795316 9.163588 4.814136 -5.499019 -0.335379 0.032560 0.783656 -0.000002 0.000001 -0.000001 -0.902031 -6.980926 -3.808441 0.026598 0.806453 -16.418906 -0.000000 -0.000001 0.000003 1.947549 9.681394 -14.539550 -0.461215 -1.564458 -21.881066 0.000002 0.000001 -0.000001 2.605825 14.896550 -31.345213 -0.570640 -2.704772 -32.012055 -0.000004 -0.000000 -0.000002 4.171022 18.494923 -34.987425 -0.706803 -5.788624 -39.372902 -0.000000 -0.000001 0.000005 -0.000000 -0.000002 0.000002 1.410928 9.461509 9.792739 1.220036 -24.270712 60.532907 -6.660693 41.858394 8.043846 6.225268 12.322321 11.673282 -8.895797 -4.903183 -0.383701 7.903388 -19.189681 -2.856933 -0.000000 -0.000001 0.000000 -1.096332 -1.217228 4.525383 0.141701 -1.115723 16.942598 -0.000002 0.000000 -0.000003 -0.670814 -2.905555 12.731497 -0.652522 1.804275 30.579498 -0.000001 -0.000000 0.000001 2.418894 -7.406051 21.762690 -0.995458 3.769846 37.430625 0.000002 0.000001 -0.000001 3.482207 -10.050683 24.322242 -1.467013 7.868259 41.092880 -0.000004 0.000003 -0.000004 -0.000001 -0.000001 0.000003 0.000001 0.000002 -0.000000 0.000001 0.000002 -0.000000 0.000001 0.000002 -0.000001 0.000001 0.000002 -0.000001 0.000001 0.000002 -0.000000 0.000001 0.000002 -0.000000 0.000001 0.000002 -0.000001 0.000001 0.000002 -0.000001 0.000001 0.000002 -0.000000 0.000001 0.000002 -0.000000 0.000000 -0.000000 -0.000000 0.000000 -0.000000 -0.000000 0.000000 -0.000000 -0.000000 
-0.986688 66.539383 0.933683 -6.052494 -43.029451 -3.986835 -0.000000 -0.000002 0.000000 -24.720164 6.250731 13.949966 35.069736 -14.509805 -0.188863 -7.837188 0.946447 -7.451367 -0.000000 0.000001 -0.000000 0.000000 -0.000000 0.000000 -2.945404 -14.306643 -14.537815 34.212506 -8.683880 -0.465080 -23.640639 -4.509997 16.725697 -0.000000 -0.000002 0.000000 -0.000000 -0.000001 -0.000000 5.827923 4.567129 -1.245597 11.826962 9.047791 -3.104681 11.826968 9.047798 -3.104679 -4.348300 -1.296189 0.185083 -6.207248 20.521764 -0.394173 0.000000 0.000000 -0.000000 0.000000 0.000000 -0.000000 0.000000 0.000000 -0.000000 0.000000 0.000000 -0.000000 0.000000 0.000000 -0.000000 0.000000 0.000000 -0.000000 0.000000 0.000000 -0.000000 0.000000 0.000000 -0.000000 0.000000 0.000000 -0.000000 1.387385 -0.696820 -7.876268 -14.262251 2.393783 -63.250673 9.848935 -47.561032 5.920507 16.146007 0.904697 18.680754 9.281169 4.985908 -5.486670 -0.249601 0.224367 0.816305 0.000002 -0.000000 0.000003 -0.895019 -6.979124 -3.983070 0.019728 0.784225 -16.611447 0.000001 -0.000001 0.000001 1.943548 9.666285 -14.728984 -0.467826 -1.583386 -22.065399 0.000002 0.000002 -0.000001 2.597699 14.883706 -31.520292 -0.579621 -2.719020 -32.210496 0.000000 0.000002 0.000000 4.160762 18.488398 -35.170488 -0.709425 -5.791674 -39.559250 -0.000002 -0.000001 -0.000001 -0.000000 -0.000004 0.000003 1.398771 9.503315 9.802034 1.235465 -24.253387 60.503592 -6.635582 41.828618 8.061770 6.205717 12.287848 11.583885 -8.744226 -4.912957 -0.267392 7.890842 -19.193887 -2.875769 0.000001 -0.000001 0.000002 -1.094929 -1.224537 4.426550 0.143551 -1.121780 16.879909 -0.000001 0.000002 -0.000001 -0.667440 -2.920386 12.633021 -0.649444 1.799061 30.481871 -0.000000 -0.000001 -0.000001 2.423723 -7.418803 21.676042 -0.988824 3.761190 37.329354 -0.000000 -0.000003 -0.000006 3.489133 -10.065740 24.227641 -1.459265 7.863629 40.993617 -0.000000 -0.000001 -0.000001 0.000001 0.000001 -0.000001 -0.000002 -0.000001 -0.000000 0.000001 -0.000001 -0.000000 -0.000002 -0.000001 0.000001 -0.000002 -0.000001 0.000001 -0.000002 -0.000001 -0.000000 0.000001 -0.000001 0.000000 -0.000002 -0.000001 0.000001 -0.000002 -0.000001 0.000001 -0.000002 -0.000001 -0.000000 0.000001 -0.000001 0.000000 -0.000000 -0.000002 0.000000 -0.000000 -0.000002 0.000000 -0.000000 -0.000002 0.000000 
-0.985374 66.543686 0.931763 -6.022497 -43.096011 -3.952056 -0.000000 0.000000 0.000000 -24.709145 6.250430 13.920482 35.045755 -14.425004 -0.159389 -7.838905 0.951174 -7.492899 -0.000000 -0.000002 0.000000 0.000000 0.000000 -0.000000 -3.000459 -14.296959 -14.537416 34.201079 -8.648638 -0.527587 -23.625877 -4.509648 16.737020 0.000000 -0.000000 -0.000000 -0.000000 -0.000001 -0.000000 5.824252 4.564388 -1.254893 11.819978 9.041245 -3.121166 11.819972 9.041248 -3.121166 -4.387859 -1.297862 0.163180 -6.136322 20.653464 -0.443796 -0.000000 -0.000000 -0.000000 -0.000000 -0.000000 -0.000000 -0.000000 -0.000000 -0.000000 -0.000000 -0.000000 -0.000000 -0.000000 -0.000000 -0.000000 -0.000000 -0.000000 -0.000000 -0.000000 -0.000000 -0.000000 -0.000000 -0.000000 -0.000000 -0.000000 -0.000000 -0.000000 1.389714 -0.709917 -7.876824 -14.244243 2.394028 -63.227246 9.904602 -47.573135 5.947292 16.178292 0.914634 18.773779 9.414847 5.159739 -5.469220 -0.170209 0.412564 0.856126 0.000003 0.000002 -0.000001 -0.885480 -6.977792 -4.153082 0.012766 0.761539 -16.807781 -0.000001 0.000001 -0.000002 1.939547 9.651386 -14.916302 -0.474086 -1.601157 -22.238819 0.000004 -0.000002 -0.000003 2.589847 14.871359 -31.688857 -0.588521 -2.733071 -32.406024 0.000000 0.000003 -0.000000 4.151068 18.482362 -35.342657 -0.711819 -5.794500 -39.734523 0.000002 -0.000001 -0.000001 0.000002 0.000001 -0.000001 1.393259 9.523883 9.813707 1.197305 -24.211979 60.500689 -6.605039 41.712676 8.037636 6.258867 12.244934 11.498267 -8.538367 -4.895324 -0.106987 7.856119 -19.205500 -2.927875 0.000000 -0.000001 0.000001 -1.093473 -1.232164 4.323054 0.143911 -1.122943 16.867323 0.000000 0.000000 -0.000001 -0.663457 -2.937933 12.524940 -0.646092 1.793340 30.374527 0.000001 0.000001 -0.000001 2.430988 -7.439388 21.599218 -0.980319 3.750012 37.198925 0.000001 0.000003 0.000002 3.495819 -10.078042 24.121568 -1.450821 7.858602 40.884648 0.000000 -0.000000 0.000000 0.000002 0.000000 -0.000002 -0.000002 0.000001 0.000000 0.000000 0.000001 -0.000000 -0.000002 0.000001 0.000000 -0.000002 0.000001 0.000000 -0.000002 0.000001 0.000000 0.000000 0.000001 0.000000 -0.000002 0.000001 0.000000 -0.000002 0.000001 0.000000 -0.000002 0.000001 0.000000 0.000000 0.000001 0.000000 -0.000000 0.000000 0.000000 -0.000000 0.000000 0.000000 -0.000000 0.000000 0.000000 
-0.981991 66.543205 0.932932 -5.972350 -43.168787 -3.906296 -0.000000 0.000002 0.000000 -24.730158 6.250097 13.903938 35.051909 -14.348841 -0.145789 -7.856772 0.956792 -7.519468 0.000000 0.000002 0.000000 0.000001 0.000002 0.000001 -3.082052 -14.280875 -14.543395 34.211892 -8.607944 -0.587210 -23.619636 -4.513545 16.751512 0.000000 -0.000000 -0.000000 0.000000 -0.000002 -0.000001 5.818910 4.557330 -1.261668 11.809249 9.026355 -3.132224 11.809254 9.026339 -3.132222 -4.418644 -1.266523 0.119652 -6.071691 20.811248 -0.506487 0.000000 -0.000000 -0.000000 0.000000 -0.000000 -0.000000 0.000000 -0.000000 -0.000000 0.000000 -0.000000 -0.000000 0.000000 -0.000000 -0.000000 0.000000 -0.000000 -0.000000 0.000000 -0.000000 -0.000000 0.000000 -0.000000 -0.000000 0.000000 -0.000000 -0.000000 1.389217 -0.712566 -7.883959 -14.233991 2.393104 -63.219213 9.867921 -47.596286 5.922684 16.138888 0.892876 18.667033 9.527651 5.320431 -5.445002 -0.082368 0.613075 0.892565 0.000001 0.000001 -0.000001 -0.878618 -6.976111 -4.318751 0.006565 0.741423 -16.982082 0.000002 0.000000 -0.000002 1.935618 9.636925 -15.098097 -0.480064 -1.617979 -22.403403 0.000003 -0.000000 0.000001 2.581129 14.857775 -31.874727 -0.595915 -2.743321 -32.579524 -0.000001 0.000001 -0.000001 4.139506 18.469574 -35.515628 -0.714239 -5.797202 -39.900094 -0.000000 0.000001 0.000003 0.000001 -0.000000 0.000000 1.393274 9.550951 9.804896 1.182777 -24.200772 60.514342 -6.580792 41.627257 8.001240 6.320976 12.185650 11.442677 -8.394748 -4.917732 0.003169 7.849055 -19.207863 -2.938466 0.000002 0.000000 0.000001 -1.091893 -1.240388 4.212008 0.146036 -1.129836 16.796169 -0.000001 0.000001 -0.000001 -0.661692 -2.945907 12.408734 -0.642770 1.787651 30.268110 0.000001 0.000001 -0.000001 2.436798 -7.454665 21.485122 -0.971956 3.739007 37.070657 0.000002 0.000000 -0.000003 3.502978 -10.091379 24.007318 -1.441693 7.853018 40.767145 0.000000 -0.000001 -0.000001 0.000001 -0.000000 0.000003 -0.000001 0.000000 -0.000001 -0.000003 0.000000 -0.000000 -0.000001 0.000000 0.000000 -0.000001 0.000000 0.000000 -0.000001 0.000000 -0.000001 -0.000003 0.000000 -0.000000 -0.000001 0.000000 0.000000 -0.000001 0.000000 0.000000 -0.000001 0.000000 -0.000001 -0.000003 0.000000 -0.000000 -0.000000 0.000002 0.000000 -0.000000 0.000002 0.000000 -0.000000 0.000002 0.000000 
